<?xml version="1.0" encoding="UTF-8" standalone="no"?>
<svg
   width="165"
   height="165"
   viewBox="0 0 165 165"
   fill="none"
   version="1.1"
   id="svg48"
   sodipodi:docname="Rebecca_head.svg"
   inkscape:version="1.3.2 (091e20e, 2023-11-25, custom)"
   xmlns:inkscape="http://www.inkscape.org/namespaces/inkscape"
   xmlns:sodipodi="http://sodipodi.sourceforge.net/DTD/sodipodi-0.dtd"
   xmlns="http://www.w3.org/2000/svg"
   xmlns:svg="http://www.w3.org/2000/svg">
  <sodipodi:namedview
     id="namedview48"
     pagecolor="#ffffff"
     bordercolor="#666666"
     borderopacity="1.0"
     inkscape:showpageshadow="2"
     inkscape:pageopacity="0.0"
     inkscape:pagecheckerboard="true"
     inkscape:deskcolor="#d1d1d1"
     inkscape:zoom="1.9351156"
     inkscape:cx="209.28983"
     inkscape:cy="-15.761333"
     inkscape:window-width="1920"
     inkscape:window-height="1017"
     inkscape:window-x="3832"
     inkscape:window-y="-8"
     inkscape:window-maximized="1"
     inkscape:current-layer="svg48" />
  <g
     clip-path="url(#clipPath48)"
     id="g48"
     transform="translate(-130.57607,-31.046783)">
    <rect
       width="300"
       height="300"
       fill="#ffffff"
       id="rect1"
       x="0"
       y="0" />
    <path
       d="m 219.863,185.31 c -9.816,17.221 -36.949,95.622 -91.771,103.868 -18.619,2.793 -83.043,-65.521 -97.5283,-94.635 -10.4084,-20.91 33.7932,-39.705 47.2807,-38.703 16.8529,1.26 48.0746,67.308 59.8076,66.554 18.817,-1.23 28.693,-43.591 66.776,-55.74 19.615,-6.044 22.88,5.447 15.435,18.656 z"
       fill="#f7a9a0"
       id="path1" />
    <path
       d="M 32.3915,197.817 C 28.3387,191.688 12.2108,161.936 9.52481,152.631 6.83885,143.326 1.1064,115.992 7.88481,113.11 c 6.77839,-2.882 9.06249,4.917 9.06249,4.917 0,0 -0.6187,-11.931 6.4583,-14.118 7.077,-2.188 10.301,10.164 10.301,10.164 0,0 0.2109,-12.255 7.4377,-13.973 7.2268,-1.7183 8.4043,11.301 8.4043,11.301 0,0 -0.3201,-11.237 6.2035,-9.989 7.865,1.407 6.1343,22.238 9.8504,32.323 0.83,2.275 20.2585,44.981 20.2585,44.981 z"
       fill="#f7a9a0"
       id="path2" />
    <path
       d="m 49.4595,110.465 c -1.2349,15.294 0.8201,22.236 7.5463,35.684 0.0344,0.271 -0.2045,0.517 -0.3571,0.262 -7.9258,-12.496 -11.6561,-20.806 -8.0684,-36.013 0.3215,-0.777 0.935,-0.674 0.8792,0.067 z"
       fill="#263238"
       id="path3" />
    <path
       d="m 33.8423,113.015 c 0.0905,16.036 2.2477,23.546 8.4584,38.132 0.0267,0.211 -0.2532,0.37 -0.3839,0.051 -7.2484,-13.777 -10.8682,-22.163 -8.8832,-38.168 0.1045,-0.594 0.8054,-0.748 0.8087,-0.015 z"
       fill="#263238"
       id="path4" />
    <path
       d="m 96.8975,184.045 c -0.4121,-9.27 -1.4966,-18.495 -3.2446,-27.602 -2.2643,-8.352 -21.9184,-36.325 -28.1341,-32.325 -7.9649,5.117 0.2683,23.562 5.4618,32.047 0,0 -18.4816,11.885 -15.3619,26.482 3.1196,14.596 41.2788,1.398 41.2788,1.398 z"
       fill="#f7a9a0"
       id="path5" />
    <path
       d="m 63.8073,126.239 c -3.947,10.027 3.572,20.742 8.0016,29.358 0.0757,0.124 0.1198,0.266 0.1284,0.411 0.0086,0.146 -0.0187,0.292 -0.0793,0.424 -0.0606,0.133 -0.1527,0.248 -0.2679,0.335 -0.1152,0.087 -0.2499,0.143 -0.3919,0.164 -7.4055,5.501 -16.2867,15.447 -16.0837,25.293 0.0383,0.301 -0.3751,0.355 -0.4134,0.055 -1.6427,-10.543 6.3276,-21.041 14.801,-26.408 -4.6888,-8.765 -11.7442,-19.847 -5.7718,-29.53 0.036,-0.188 0.0989,-0.166 0.077,-0.102 z"
       fill="#263238"
       id="path6" />
    <mask
       id="mask0_14_92855"
       maskUnits="userSpaceOnUse"
       x="-91"
       y="-82"
       width="496"
       height="505">
      <rect
         x="-91"
         y="-82"
         width="496"
         height="505"
         fill="#ffffff"
         id="rect6" />
    </mask>
    <g
       mask="url(#mask0_14_92855)"
       id="g47">
      <path
         d="m 126.188,478.951 c 1.011,29.789 76.395,188.597 76.395,188.597 l -108.6124,49.28 c 0,0 -89.11532,-176.032 -81.7059,-242.022 6.322,-55.922 144.4963,-159.348 166.6993,-188.494 3.287,-4.325 2.149,-21.73 2.149,-21.73 h 89.748 v 21.73 c -34.265,74.049 -136.758,162.876 -144.37,188.932 -0.274,1.197 -0.376,2.429 -0.303,3.656 z"
         fill="#37474f"
         id="path7" />
      <path
         d="m 189.989,906.197 129.88,-1.648 c 0,0 -33.785,-494.342 -21.52,-509.198 29.258,-35.608 24.58,-83.086 4.906,-130.769 H 202.734 c 0,0 4.805,72.4 4.35,74.486 -30.801,137.257 -17.095,567.129 -17.095,567.129 z"
         fill="#37474f"
         id="path8" />
      <path
         d="m 200.41,292.697 c 1.011,12.873 0.505,35.093 7.864,35.428 7.359,0.334 6.07,-26.726 6.272,-32.931 0.177,-5.638 2.099,-4.866 2.301,1.777 0.556,18.023 0,33.96 -9.306,33.213 -9.306,-0.746 -9.331,-28.708 -9.104,-35.093 0.101,-3.27 1.669,-6.462 1.973,-2.394 z"
         fill="#263238"
         id="path9" />
      <path
         d="m 297.39,790.335 c -1.686,-18.332 -3.187,-36.664 -4.502,-54.996 -2.731,-36.681 -4.914,-73.405 -6.549,-110.171 -1.636,-36.767 -2.723,-73.534 -3.262,-110.3 -0.253,-18.401 -0.38,-36.801 -0.38,-55.202 0,-18.254 -0.126,-42.611 0.809,-60.84 0.481,-9.269 16.514,-16.426 19.776,-43.409 2.946,-19.163 0.308,-38.785 -7.587,-56.438 0,-0.257 -0.43,0 -0.328,0.181 6.419,15.16 9.085,31.692 7.763,48.146 -0.477,8.29 -2.182,16.458 -5.058,24.228 -4.324,10.865 -14.92,19.722 -15.476,25.49 -0.809,8.651 -0.936,16.117 -1.062,24.768 -0.101,9.029 -0.177,18.049 -0.228,27.06 -0.101,18.384 -0.05,36.776 0.152,55.176 0.388,36.612 1.332,73.207 2.832,109.785 1.501,36.578 3.566,73.13 6.196,109.657 2.529,36.509 5.816,102.498 9.584,139.033 0.43,4.171 0.91,8.317 1.517,12.488 0,0.437 0.81,0.334 0.784,-0.129 -1.062,-18.409 -3.338,-66.247 -4.981,-84.527 z"
         fill="#263238"
         id="path10" />
      <path
         d="m 165.159,162.134 c -0.017,0.287 0.068,0.57 0.24,0.798 0.172,0.227 0.419,0.383 0.696,0.438 l 4.703,0.335 c 4.249,-11.226 8.801,-20.134 7.587,-16.658 -1.819,5.463 -2.816,11.175 -2.959,16.941 l 9.306,0.464 c 3.692,-19.722 8.396,-34.373 8.092,-29.841 -1.188,18.203 -0.126,24.073 1.113,30.33 22.506,1.081 52.018,2.163 73.336,2.575 2.528,-10.917 4.627,-22.735 5.057,-21.885 2.908,6.153 3.718,15.113 3.768,21.988 6.803,0 12.24,0 15.527,-0.258 0,0 1.593,-9.166 1.821,-12.178 0.613,-7.746 -0.184,-15.541 -2.352,-22.992 -2.563,-7.439 -5.867,-14.591 -9.862,-21.344 v -0.155 c -2.435,-4.504 -4.345,-9.282 -5.69,-14.2381 -0.9,-3.5874 -1.484,-7.2494 -1.745,-10.9424 -0.986,-13.4657 -8.446,-25.1291 -20.888,-28.7079 -23.493,-22.5544 -47.036,-13.1052 -54.142,4.171 -0.683,1.6993 -1.34,3.6303 -1.998,5.7158 -2.402,7.7241 -4.552,18.0229 -6.549,25.747 -0.735,3.0705 -1.664,6.0893 -2.782,9.0376 -6.094,13.954 -19.775,21.936 -22.279,60.659 z"
         fill="#263238"
         id="path11" />
      <path
         d="m 258.143,60.2791 c 3.958,1.8582 7.372,4.7355 9.904,8.3477 2.533,3.6123 4.096,7.8345 4.535,12.2498 0.37,5.699 1.467,11.3247 3.263,16.7356 2.382,5.3748 5.554,10.3498 9.407,14.7528 5.765,7.287 9.786,14.521 10.671,24.177 1.161,10.266 0.205,20.667 -2.807,30.536 2.489,-10.431 2.859,-21.268 1.088,-31.849 -1.796,-10.66 -7.713,-17.38 -13.782,-25.516 -4.848,-6.31 -7.932,-13.8352 -8.927,-21.7817 -0.607,-4.8662 -0.531,-9.9126 -2.529,-14.4955 -2.276,-5.4841 -6.853,-8.96 -11.379,-12.0496 -0.145,-0.0751 -0.254,-0.2055 -0.303,-0.3624 -0.05,-0.1569 -0.037,-0.3276 0.037,-0.4744 0.074,-0.1468 0.202,-0.2578 0.356,-0.3085 0.154,-0.0507 0.322,-0.037 0.466,0.0382 z"
         fill="#263238"
         id="path12" />
      <path
         d="m 173.502,116.433 c 5.74,-7.724 11.758,-14.135 15.172,-23.6097 3.086,-8.6253 4.856,-17.7654 7.991,-26.3907 h 0.203 c -4.83,15.4482 -5.766,30.8964 -15.502,43.7694 -5.285,7.004 -10.57,13.492 -14.035,21.885 -3.55,8.793 -5.413,18.197 -5.487,27.704 0,0.335 -0.43,0.309 -0.456,0 -1.468,-15.49 2.858,-30.974 12.114,-43.358 z"
         fill="#263238"
         id="path13" />
      <path
         d="m 111.345,181.6 -51.6889,59.527 c 0,0 58.5669,62.668 84.8919,55.047 26.325,-7.621 74.17,-82.39 88.787,-129.378 10.115,-32.493 -7.283,-26.751 -25.288,-10.299 -18.005,16.452 -64.915,57.055 -67.039,56.643 -2.124,-0.412 -29.663,-31.54 -29.663,-31.54 z"
         fill="#2196f3"
         id="path14" />
      <path
         opacity="0.1"
         d="m 233.333,166.821 c -14.591,46.936 -62.461,121.706 -88.786,129.352 -11.633,3.373 -29.562,-7.003 -45.9742,-19.619 26.1482,-29.3 95.9432,-100.413 127.5532,-132.416 8.901,-3.245 13.656,1.956 7.207,22.683 z"
         fill="#000000"
         id="path15" />
      <path
         d="m 77.3333,250.164 c 7.5865,-8.214 36.9717,-42.998 42.8377,-50.953 0.405,-0.567 0.152,-0.953 -0.328,-0.438 -23.0631,24.099 -35.8842,42.637 -42.8131,51.082 -0.177,0.206 0.1011,0.515 0.3034,0.309 z"
         fill="#263238"
         id="path16" />
      <path
         d="m 317.696,280.082 -141.158,2.343 11.051,-43.024 c -3.672,-5.407 -6.135,-11.569 -7.214,-18.05 -1.079,-6.482 -0.749,-13.126 0.967,-19.463 3.364,-12.668 19.447,-31.669 29.284,-43.77 23.998,-29.351 44.836,-16.066 51.487,-8.522 25.288,28.888 55.583,130.486 55.583,130.486 z"
         fill="#ebebeb"
         id="path17" />
      <path
         d="m 251.111,141.382 c 0,0 -13.833,37.333 -19.194,45.984 -5.361,8.651 -21.343,23.867 -21.343,23.867 0,0 -1.821,-22.091 0,-34.707 1.821,-12.616 12.391,-30.587 12.391,-30.587 -2.828,1.493 -5.358,3.51 -7.46,5.947 -11.961,12.41 -32.748,36.793 -35.859,53.477 -1.173,5.779 -1.21,11.738 -0.107,17.532 1.102,5.794 3.322,11.307 6.531,16.222 l -15.907,51.7 22.279,7.029 10.975,-13.234 11.329,14.702 112.912,-16.041 -18.764,-36.046 c 0,0 -26.932,-71.087 -37.578,-86.535 -12.214,-17.869 -20.205,-19.31 -20.205,-19.31 z"
         fill="#2196f3"
         id="path18" />
      <path
         d="m 239.076,244.937 c -4.796,-1.432 -9.667,-2.584 -14.591,-3.45 -2.529,-0.412 -4.932,-0.695 -7.435,-0.901 l -3.566,-0.258 c -1.315,0 -2.529,0 -3.97,0 v 0.232 c 1.239,0 2.529,0.438 3.667,0.644 l 3.717,0.566 c 2.529,0.412 4.906,0.824 7.384,1.184 4.931,0.747 9.837,1.545 14.769,2.446 0.227,0 0.278,-0.386 0.025,-0.463 z"
         fill="#263238"
         id="path19" />
      <path
         d="m 248.178,147.82 c -0.582,2.574 -12.644,19.207 -24.125,18.641 -3.768,-0.206 -3.642,-21.087 -3.642,-21.087 l -0.354,-1.545 -4.703,-21.576 24.934,-16.246 3.616,-2.137 c 0,0 0.91,5.973 1.947,13.465 l 0.152,1.056 c 0,0.438 0.152,0.824 0.202,1.21 0.177,1.133 0.329,2.266 0.481,3.399 0.151,1.133 0.227,1.699 0.328,2.574 l 0.304,2.73 c 0.735,6.476 1.023,12.998 0.86,19.516 z"
         fill="#f7a9a0"
         id="path20" />
      <path
         d="m 245.851,117.438 c -2.149,6.06 -5.57,11.569 -10.025,16.145 -4.455,4.576 -9.836,8.107 -15.769,10.349 l -4.703,-21.576 24.934,-16.247 3.616,-2.137 c 0,0 0.91,5.974 1.947,13.466 z"
         fill="#263238"
         id="path21" />
      <path
         d="m 186.171,81.985 c -12.644,36.638 7.587,48.482 15.173,51.236 7.03,2.575 31.357,10.145 47.618,-24.974 16.26,-35.119 3.54,-52.6785 -12.265,-59.2182 C 220.892,42.4891 198.79,45.347 186.171,81.985 Z"
         fill="#f7a9a0"
         id="path22" />
      <path
         d="m 192.874,80.8767 c 0.839,0.0998 1.683,0.1514 2.528,0.1544 0.925,0.194 1.886,0.0671 2.732,-0.3604 0.235,-0.1856 0.405,-0.4446 0.482,-0.7374 0.078,-0.2929 0.059,-0.6036 -0.053,-0.8847 -0.308,-0.5223 -0.746,-0.9524 -1.27,-1.2463 -0.524,-0.294 -1.115,-0.4414 -1.714,-0.4272 -1.224,-0.1392 -2.455,0.1812 -3.464,0.9011 -0.222,0.1828 -0.385,0.4285 -0.47,0.7059 -0.084,0.2774 -0.086,0.5742 -0.005,0.8526 0.081,0.2785 0.242,0.5262 0.462,0.7116 0.219,0.1855 0.488,0.3005 0.772,0.3304 z"
         fill="#263238"
         id="path23" />
      <path
         d="m 217.682,86.7477 c -0.801,-0.3602 -1.578,-0.773 -2.326,-1.2358 -0.91,-0.4892 -1.669,-0.7724 -2.15,-1.6993 -0.118,-0.2843 -0.14,-0.6005 -0.062,-0.8989 0.078,-0.2983 0.251,-0.5618 0.492,-0.7489 0.518,-0.3077 1.107,-0.4697 1.707,-0.4697 0.6,0 1.189,0.162 1.707,0.4697 1.123,0.516 2.022,1.4315 2.529,2.5747 0.125,0.2732 0.166,0.5786 0.118,0.876 -0.049,0.2974 -0.185,0.5729 -0.39,0.7902 -0.205,0.2173 -0.47,0.3663 -0.76,0.4273 -0.29,0.0611 -0.592,0.0313 -0.865,-0.0853 z"
         fill="#263238"
         id="path24" />
      <path
         d="m 210.323,92.4381 c 0,0 0.177,0.1802 0.127,0.2832 -0.809,2.5747 -1.341,5.5099 0.657,7.0547 -2.68,-1.1071 -1.947,-5.0979 -0.784,-7.3379 z"
         fill="#263238"
         id="path25" />
      <path
         d="m 213.331,90.456 c 4.096,0.9269 1.997,9.1916 -1.796,8.342 -3.793,-0.8497 -1.644,-9.0887 1.796,-8.342 z"
         fill="#263238"
         id="path26" />
      <path
         d="m 214.822,91.3314 c 0.582,0.6437 1.062,1.6478 1.897,1.9568 0.834,0.309 1.922,-0.3089 2.781,-0.9784 0,0 0.152,0 0.127,0 -0.379,1.5963 -1.391,3.0639 -3.111,2.8579 -1.719,-0.2059 -2.326,-1.8537 -2.301,-3.553 0,-0.1803 0.354,-0.4377 0.607,-0.2833 z"
         fill="#263238"
         id="path27" />
      <path
         d="m 196.666,87.5459 c 0,0 -0.227,0 -0.253,0.1802 -0.556,2.5747 -1.593,5.4584 -4.096,5.7416 2.883,0.4377 4.198,-3.3728 4.349,-5.9218 z"
         fill="#263238"
         id="path28" />
      <path
         d="m 195.075,84.3023 c -3.97,-1.3388 -6.322,6.8487 -2.529,8.1103 3.793,1.2616 5.867,-6.9774 2.529,-8.1103 z"
         fill="#263238"
         id="path29" />
      <path
         d="m 193.228,84.353 c -0.759,0.2317 -1.593,0.8497 -2.377,0.6694 -0.784,-0.1802 -1.29,-1.2873 -1.619,-2.2914 0,0 -0.126,0 -0.152,0 -0.48,1.5448 -0.455,3.3213 0.936,4.068 1.391,0.7467 2.655,-0.3862 3.465,-1.8281 0.151,-0.2059 0.075,-0.7209 -0.253,-0.6179 z"
         fill="#263238"
         id="path30" />
      <path
         d="m 196.92,101.99 c 0,0 -1.542,3.657 -2.023,5.459 0,0.154 0.38,0.36 0.961,0.566 1.444,0.692 3.045,0.969 4.632,0.801 1.587,-0.168 3.098,-0.774 4.371,-1.753 0.028,-0.034 0.045,-0.075 0.049,-0.119 0.003,-0.043 -0.007,-0.087 -0.03,-0.124 -0.022,-0.038 -0.056,-0.067 -0.096,-0.083 -0.04,-0.017 -0.084,-0.02 -0.125,-0.009 -2.684,0.915 -5.586,0.915 -8.27,0 0,-0.515 2.833,-6.179 2.529,-6.282 -1.401,-0.259 -2.831,-0.32 -4.248,-0.181 2.958,-7.7237 7.106,-14.9328 9.963,-22.6827 0.022,-0.0568 0.022,-0.1196 0.003,-0.177 -0.02,-0.0575 -0.059,-0.106 -0.111,-0.1368 -0.051,-0.0309 -0.112,-0.0422 -0.171,-0.0319 -0.059,0.0104 -0.112,0.0416 -0.151,0.0883 -4.689,7.5742 -8.628,15.6037 -11.759,23.9701 -0.328,1.159 3.667,0.798 4.476,0.695 z"
         fill="#263238"
         id="path31" />
      <path
         d="m 196.211,107.397 c 0.596,1.732 1.614,3.283 2.959,4.505 0.751,0.656 1.692,1.045 2.68,1.108 2.125,0.154 2.782,-1.674 2.959,-3.373 0.104,-0.907 0.104,-1.823 0,-2.729 -2.738,1.108 -5.756,1.28 -8.598,0.489 z"
         fill="#263238"
         id="path32" />
      <path
         d="m 199.172,111.902 c 0.751,0.656 1.692,1.045 2.68,1.107 2.124,0.155 2.782,-1.673 2.959,-3.373 -1.054,-0.293 -2.174,-0.231 -3.19,0.178 -1.017,0.408 -1.876,1.141 -2.449,2.088 z"
         fill="#ff9abb"
         id="path33" />
      <path
         d="m 248.557,110.305 c -2.192,-1.665 -3.923,-3.88 -5.022,-6.43 -1.099,-2.55 -1.53,-5.3466 -1.249,-8.1166 -6.013,-4.2009 -10.815,-9.9608 -13.909,-16.684 0,0.8239 0.835,6.8745 1.315,9.9383 -22.987,-9.1916 -26.856,-29.197 -26.856,-29.197 -5.362,3.3815 -9.909,7.9486 -13.302,13.3626 0,0 2.529,-14.9075 12.038,-23.4297 3.091,-2.9891 6.908,-5.0868 11.059,-6.0777 4.151,-0.9909 8.486,-0.8394 12.56,0.4391 6.161,-0.3053 12.289,1.0883 17.737,4.0339 5.447,2.9456 10.013,7.3338 13.215,12.7016 12.24,20.1857 -7.586,49.4595 -7.586,49.4595 z"
         fill="#263238"
         id="path34" />
      <path
         d="m 212.347,81.4688 c 3.429,2.8723 7.255,5.2147 11.355,6.9517 -6.354,-3.1731 -11.713,-8.0857 -15.477,-14.1866 -1.595,-2.5994 -2.861,-5.3936 -3.768,-8.3163 -1.109,-3.1589 -1.59,-6.511 -1.416,-9.8611 -0.014,-0.0394 -0.04,-0.0734 -0.074,-0.0974 -0.034,-0.024 -0.074,-0.0369 -0.116,-0.0369 -0.041,0 -0.081,0.0129 -0.115,0.0369 -0.034,0.024 -0.06,0.058 -0.074,0.0974 -0.557,3.2886 -0.557,6.6498 0,9.9384 0.765,3.2118 2.111,6.2504 3.97,8.9599 1.622,2.4362 3.571,4.6289 5.791,6.514"
         fill="#263238"
         id="path35" />
      <path
         d="m 242.437,105.517 c 0,0 11.001,-9.6292 15.502,-5.329 4.501,4.299 -5.842,19.722 -12.644,20.443 -0.861,0.165 -1.746,0.15 -2.601,-0.045 -0.855,-0.195 -1.663,-0.565 -2.373,-1.088 -0.71,-0.522 -1.307,-1.187 -1.757,-1.953 -0.449,-0.766 -0.74,-1.617 -0.856,-2.501 z"
         fill="#f7a9a0"
         id="path36" />
      <path
         d="m 254.881,104.54 c 0,0 0,0.154 0,0.18 -4.754,0.643 -8.042,4.119 -10.697,7.93 0.361,-0.375 0.798,-0.665 1.28,-0.851 0.483,-0.186 0.999,-0.264 1.513,-0.227 0.515,0.037 1.015,0.187 1.467,0.439 0.452,0.253 0.845,0.603 1.152,1.025 0,0 0,0.258 -0.177,0.206 -0.696,-0.444 -1.509,-0.658 -2.329,-0.612 -0.82,0.046 -1.605,0.35 -2.249,0.87 -1.061,0.879 -2.035,1.862 -2.908,2.935 -0.303,0.36 -0.935,0 -0.682,-0.464 1.34,-5.716 7.586,-12.41 13.63,-11.431 z"
         fill="#263238"
         id="path37" />
      <path
         d="m 270.431,158.117 c 32.141,56.644 80.341,186.177 88.913,204.714 5.918,12.591 -58.719,45.753 -61.475,36.613 -3.515,-11.741 -48.376,-162.747 -51.285,-230.127 -1.365,-31.231 13.555,-29.223 23.847,-11.2 z"
         fill="#f7a9a0"
         id="path38" />
      <path
         d="m 363.137,359.871 -70.806,35.273 c 0,0 -41.245,-162.36 -45.848,-214.807 -4.602,-52.447 15.173,-40.371 28.879,-15.731 18.688,33.651 87.775,195.265 87.775,195.265 z"
         fill="#2196f3"
         id="path39" />
      <path
         d="m 267.548,291.796 c -1.062,-7.724 -2.377,-15.448 -3.742,-23.044 -1.366,-7.595 -2.833,-15.294 -4.35,-22.94 -1.517,-7.647 -3.161,-15.217 -4.931,-22.812 l -2.655,-11.355 c -0.987,-3.759 -1.872,-7.544 -2.909,-11.303 0.506,3.862 1.164,7.725 1.72,11.561 l 1.998,11.483 c 1.34,7.724 2.857,15.448 4.375,22.941 1.517,7.492 3.161,15.216 4.931,22.811 1.77,7.596 3.515,15.14 5.563,22.658 z"
         fill="#263238"
         id="path40" />
      <path
         d="m 252.983,220.193 c -1.11,-3.987 -3.022,-7.695 -5.614,-10.891 0.554,1.992 1.317,3.917 2.276,5.742 0.931,1.831 2.05,3.558 3.338,5.149 z"
         fill="#263238"
         id="path41" />
      <path
         d="m 251.719,142.258 c 1.416,9.964 3.035,19.902 4.678,29.841 l 0.506,-0.85 c -5.74,1.545 -11.455,3.218 -17.196,4.815 l -0.961,0.283 0.405,0.953 c 1.719,3.836 3.388,7.724 5.058,11.483 l 0.227,-1.056 c -6.044,5.381 -12.214,10.659 -18.207,16.144 -5.994,5.484 -12.012,10.89 -17.904,16.478 6.347,-5.15 12.644,-10.299 18.789,-15.449 6.145,-5.149 12.315,-10.556 18.485,-15.808 l 0.506,-0.438 -0.278,-0.618 c -1.669,-3.862 -3.464,-7.724 -5.209,-11.483 l -0.531,1.21 c 5.689,-1.699 11.43,-3.347 17.094,-5.149 l 0.633,-0.206 v -0.644 c -1.948,-9.81 -3.92,-19.671 -6.095,-29.506 z"
         fill="#263238"
         id="path42" />
      <path
         d="m 219.932,148.154 c -3.212,3.373 -5.437,5.767 -8.522,9.243 -3.086,3.476 -6.247,6.874 -9.256,10.299 l -0.582,0.721 0.81,0.515 5.968,3.784 -0.177,-1.364 c -2.529,2.575 -4.932,4.969 -7.334,7.518 l -0.303,0.36 v 0.438 c 1.239,6.772 2.351,13.569 3.717,20.314 1.366,6.746 2.529,13.543 4.147,20.263 -0.834,-6.848 -1.82,-13.671 -2.857,-20.597 -1.037,-6.926 -2.175,-13.595 -3.262,-20.392 l -0.253,0.773 c 2.528,-2.575 4.88,-5.15 7.308,-7.57 l 0.759,-0.798 -0.936,-0.567 -6.019,-3.656 0.203,1.236 c 3.009,-3.527 5.892,-7.183 8.825,-10.788 2.934,-3.604 4.906,-6.05 7.764,-9.732 z"
         fill="#263238"
         id="path43" />
      <path
         d="m 208.424,220.349 c -0.86,3.296 -1.719,6.566 -2.529,9.887 -0.809,3.321 -1.517,6.617 -2.225,9.938 -0.227,7.39 -0.278,14.779 -0.404,22.168 -0.127,7.39 0,14.779 0,22.169 0.429,-7.39 0.733,-14.753 0.96,-22.143 0.228,-7.389 0.43,-14.779 0.506,-22.168 0.683,-3.321 1.341,-6.668 1.922,-10.016 0.582,-3.347 1.214,-6.488 1.77,-9.835 z"
         fill="#263238"
         id="path44" />
      <path
         d="m 212.245,226.76 c 0.344,-0.069 0.7,-0.059 1.04,0.03 0.34,0.089 0.656,0.254 0.926,0.484 0.269,0.23 0.484,0.518 0.63,0.843 0.145,0.326 0.217,0.68 0.21,1.038 -0.006,0.369 -0.091,0.733 -0.248,1.066 -0.157,0.333 -0.383,0.628 -0.662,0.865 -0.35,0.276 -0.77,0.447 -1.211,0.491 -0.441,0.044 -0.886,-0.04 -1.282,-0.241 -0.397,-0.202 -0.729,-0.514 -0.959,-0.9 -0.23,-0.386 -0.348,-0.83 -0.341,-1.281 -0.01,-0.563 0.174,-1.111 0.521,-1.549 0.346,-0.437 0.834,-0.737 1.376,-0.846 z m -1.265,3.682 c 0.185,0.122 0.394,0.201 0.613,0.232 0.218,0.031 0.441,0.014 0.652,-0.052 0.284,-0.117 0.527,-0.319 0.698,-0.578 0.171,-0.259 0.263,-0.564 0.263,-0.876 0,-0.313 -0.092,-0.618 -0.263,-0.877 -0.171,-0.259 -0.414,-0.46 -0.698,-0.578 -0.211,-0.065 -0.434,-0.083 -0.652,-0.052 -0.219,0.031 -0.428,0.11 -0.613,0.232 -0.198,0.148 -0.36,0.342 -0.471,0.566 -0.112,0.223 -0.17,0.471 -0.17,0.721 0,0.251 0.058,0.498 0.17,0.722 0.111,0.224 0.273,0.418 0.471,0.566 z"
         fill="#263238"
         id="path45" />
      <path
         d="m 209.411,248.232 c 0.331,-0.054 0.668,-0.041 0.994,0.038 0.326,0.08 0.632,0.224 0.903,0.425 0.279,0.237 0.504,0.532 0.662,0.865 0.157,0.333 0.241,0.697 0.248,1.067 -0.007,0.369 -0.091,0.733 -0.248,1.066 -0.158,0.333 -0.383,0.628 -0.662,0.865 -0.271,0.201 -0.577,0.345 -0.903,0.425 -0.326,0.08 -0.663,0.092 -0.994,0.038 -0.472,-0.19 -0.876,-0.52 -1.161,-0.947 -0.286,-0.427 -0.438,-0.931 -0.438,-1.447 0,-0.517 0.152,-1.021 0.438,-1.448 0.285,-0.427 0.689,-0.757 1.161,-0.947 z m -1.264,3.682 c 0.187,0.116 0.396,0.191 0.614,0.222 0.217,0.031 0.438,0.017 0.65,-0.042 0.282,-0.123 0.523,-0.327 0.692,-0.588 0.169,-0.261 0.259,-0.567 0.259,-0.879 0,-0.313 -0.09,-0.619 -0.259,-0.88 -0.169,-0.26 -0.41,-0.465 -0.692,-0.588 -0.213,-0.06 -0.436,-0.072 -0.654,-0.037 -0.218,0.036 -0.426,0.118 -0.61,0.243 -0.197,0.144 -0.357,0.333 -0.467,0.553 -0.11,0.219 -0.167,0.462 -0.165,0.709 0.012,0.236 0.075,0.467 0.184,0.676 0.109,0.209 0.262,0.391 0.448,0.534 z"
         fill="#263238"
         id="path46" />
      <path
         d="m 208.428,267.724 c 0.33,-0.055 0.668,-0.042 0.994,0.038 0.325,0.079 0.632,0.224 0.902,0.425 0.282,0.24 0.51,0.539 0.667,0.877 0.158,0.337 0.241,0.706 0.244,1.08 -0.007,0.37 -0.092,0.733 -0.249,1.067 -0.157,0.333 -0.383,0.628 -0.662,0.864 -0.27,0.201 -0.577,0.346 -0.902,0.426 -0.326,0.079 -0.664,0.092 -0.994,0.038 -0.542,-0.109 -1.029,-0.409 -1.376,-0.847 -0.347,-0.437 -0.531,-0.986 -0.521,-1.548 -0.011,-0.565 0.172,-1.117 0.519,-1.559 0.346,-0.442 0.834,-0.747 1.378,-0.861 z m -1.265,3.682 c 0.184,0.124 0.392,0.207 0.61,0.243 0.219,0.035 0.442,0.023 0.655,-0.037 0.293,-0.112 0.544,-0.312 0.721,-0.575 0.177,-0.263 0.269,-0.575 0.265,-0.893 0.012,-0.32 -0.078,-0.635 -0.255,-0.899 -0.178,-0.265 -0.434,-0.464 -0.731,-0.568 -0.211,-0.066 -0.434,-0.083 -0.652,-0.052 -0.218,0.031 -0.428,0.11 -0.613,0.232 -0.198,0.148 -0.36,0.342 -0.471,0.565 -0.112,0.224 -0.17,0.471 -0.17,0.722 0,0.251 0.058,0.498 0.17,0.722 0.111,0.223 0.273,0.417 0.471,0.565 z"
         fill="#263238"
         id="path47" />
    </g>
  </g>
  <defs
     id="defs48">
    <clipPath
       id="clip0_14_92855">
      <rect
         width="300"
         height="300"
         fill="#ffffff"
         id="rect48"
         x="0"
         y="0" />
    </clipPath>
    <clipPath
       clipPathUnits="userSpaceOnUse"
       id="clipPath48">
      <circle
         style="fill:#003762;stroke:none;stroke-width:57.3501;stroke-linecap:round;stroke-linejoin:round"
         id="circle48"
         cx="213.07607"
         cy="113.54678"
         r="82.5" />
    </clipPath>
  </defs>
</svg>
